<svg width="1024" height="1024" viewBox="0 0 1024 1024" fill="none" xmlns="http://www.w3.org/2000/svg">
<rect x="100" y="100" width="824" height="824" rx="180" fill="white"/>
<g clip-path="url(#clip0_4157_33350)">
<path d="M511.994 692.695C611.787 692.695 692.686 611.794 692.686 512.002C692.686 412.205 611.787 331.296 511.994 331.296C412.198 331.296 331.299 412.205 331.299 512.002C331.299 611.794 412.198 692.695 511.994 692.695Z" fill="white"/>
<path d="M512.082 310.054C577.774 310.054 636.22 341.595 673.12 390.318L764.381 337.637C764.673 337.465 764.978 337.359 765.27 337.2L533.581 203.419C526.948 199.599 519.509 197.68 512.082 197.68C504.644 197.68 497.217 199.599 490.584 203.419L258.54 337.394C260.506 338.248 262.448 339.176 264.342 340.264L351.043 390.318C387.944 341.595 446.391 310.054 512.082 310.054Z" fill="#78D1CA"/>
<path d="M310.139 511.996C310.139 484.098 315.83 457.519 326.104 433.32L239.489 383.314C239.036 383.058 237.681 382.275 235.898 383.314C234.102 384.354 234.102 385.915 234.102 386.427V647.679C234.102 662.982 242.334 677.252 255.599 684.896L481.892 815.56C482.368 815.831 483.686 816.537 485.434 815.525C487.229 814.485 487.229 812.934 487.229 812.421V712.356C387.568 700.055 310.139 614.93 310.139 511.996Z" fill="#55B2E7"/>
<path d="M789.47 380.573L698.068 433.33C708.34 457.529 714.022 484.109 714.022 511.995C714.022 614.891 636.65 700.006 537.039 712.343L536.942 817.683C537.027 818.071 537.369 818.271 537.528 818.271L768.595 684.884C781.839 677.226 790.059 662.969 790.059 647.68V381.162C789.961 380.772 789.63 380.573 789.47 380.573Z" fill="#E39523"/>
<path d="M793.335 296.046L558.345 160.377C529.75 143.862 494.241 143.862 465.647 160.377L230.645 296.046C202.062 312.561 184.303 343.319 184.303 376.323V386.422V647.673V670.419C184.303 689.402 194.514 707.089 210.944 716.579L453.958 856.877L465.647 863.62C479.938 871.879 495.965 876.006 511.99 876.006C528.016 876.006 544.041 871.879 558.345 863.62L562.499 861.227C562.511 861.214 562.523 861.214 562.535 861.202L814.551 715.698H814.564C830.062 706.744 839.688 690.074 839.688 672.18V647.673V381.161V376.323C839.688 343.319 821.917 312.561 793.335 296.046ZM490.503 203.423C497.124 199.598 504.563 197.679 511.99 197.679C519.428 197.679 526.855 199.598 533.488 203.423L765.177 337.186C764.885 337.358 764.58 337.469 764.288 337.637L673.028 390.322C636.128 341.595 577.681 310.058 511.99 310.058C446.298 310.058 387.851 341.595 350.95 390.322L264.249 340.264C262.356 339.176 260.414 338.238 258.447 337.394L490.503 203.423ZM487.132 812.415C487.132 812.928 487.132 814.493 485.337 815.519C483.603 816.545 482.271 815.825 481.794 815.556L255.503 684.892C242.25 677.247 234.017 662.982 234.017 647.673V386.422C234.017 385.91 234.017 384.349 235.813 383.323C237.583 382.27 238.951 383.053 239.392 383.31L326.007 433.32C315.735 457.515 310.054 484.106 310.054 511.992C310.054 614.926 387.473 700.062 487.132 712.35V812.415ZM487.132 662.16C414.979 650.264 359.757 587.468 359.757 511.992C359.757 493.157 363.226 475.116 369.516 458.442C375.453 442.698 383.904 428.186 394.409 415.412C422.358 381.452 464.683 359.772 511.99 359.772C559.298 359.772 601.621 381.452 629.57 415.412C640.085 428.186 648.54 442.711 654.474 458.454C660.753 475.116 664.224 493.157 664.224 511.992C664.224 587.42 609.072 650.181 536.992 662.137C528.859 663.495 520.516 664.224 511.99 664.224C503.525 664.224 495.231 663.504 487.132 662.16ZM789.975 647.673C789.975 662.968 781.741 677.225 768.511 684.883L537.433 818.266C537.274 818.266 536.944 818.07 536.847 817.682L536.944 712.342C636.557 700.001 713.938 614.89 713.938 511.992C713.938 484.106 708.247 457.527 697.984 433.329L789.386 380.572C789.537 380.572 789.877 380.771 789.975 381.161V647.673Z" fill="#231F20"/>
<path d="M559.791 511.998C559.791 538.394 538.391 559.795 511.996 559.795C485.598 559.795 464.197 538.394 464.197 511.998C464.197 485.603 485.598 464.202 511.996 464.202C538.391 464.202 559.791 485.603 559.791 511.998Z" fill="#231F20"/>
</g>
<defs>
<clipPath id="clip0_4157_33350">
<rect width="655.395" height="728" fill="white" transform="translate(184.303 148)"/>
</clipPath>
</defs>
</svg>
