<svg width="1024" height="1024" viewBox="0 0 1024 1024" fill="none" xmlns="http://www.w3.org/2000/svg">
<g clip-path="url(#clip0_4157_33348)">
<path d="M511.991 762.193C650.167 762.193 762.182 650.176 762.182 512.003C762.182 373.823 650.167 261.794 511.991 261.794C373.813 261.794 261.799 373.823 261.799 512.003C261.799 650.176 373.813 762.193 511.991 762.193Z" fill="white"/>
<path d="M512.113 232.383C603.073 232.383 683.998 276.054 735.09 343.518L861.451 270.575C861.855 270.336 862.277 270.189 862.681 269.969L541.881 84.734C532.697 79.4442 522.397 76.787 512.113 76.787C501.815 76.787 491.531 79.4442 482.348 84.734L161.056 270.238C163.777 271.42 166.467 272.705 169.089 274.211L289.137 343.518C340.23 276.054 421.157 232.383 512.113 232.383Z" fill="#78D1CA"/>
<path d="M232.499 511.993C232.499 473.364 240.379 436.563 254.605 403.057L134.676 333.818C134.049 333.463 132.172 332.379 129.704 333.818C127.217 335.257 127.217 337.418 127.217 338.128V699.862C127.217 721.051 138.615 740.808 156.982 751.393L470.311 932.311C470.971 932.687 472.795 933.665 475.216 932.263C477.701 930.824 477.701 928.676 477.701 927.966V789.414C339.709 772.381 232.499 654.517 232.499 511.993Z" fill="#55B2E7"/>
<path d="M896.19 330.023L769.633 403.07C783.856 436.577 791.723 473.38 791.723 511.991C791.723 654.463 684.592 772.315 546.67 789.396L546.536 935.251C546.653 935.789 547.127 936.066 547.347 936.066L867.286 751.377C885.623 740.773 897.005 721.033 897.005 699.862V330.837C896.87 330.299 896.411 330.023 896.19 330.023Z" fill="#E39523"/>
<path d="M901.541 212.986L576.17 25.1374C536.577 2.27009 487.411 2.27009 447.819 25.1374L122.432 212.986C82.8559 235.854 58.2656 278.441 58.2656 324.139V338.123V699.855V731.35C58.2656 757.633 72.4047 782.123 95.1534 795.262L431.635 989.521L447.819 998.858C467.606 1010.29 489.798 1016.01 511.987 1016.01C534.176 1016.01 556.365 1010.29 576.17 998.858L581.922 995.545C581.938 995.526 581.955 995.526 581.972 995.51L930.916 794.043H930.935C952.394 781.645 965.723 758.564 965.723 733.787V699.855V330.837V324.139C965.723 278.441 941.116 235.854 901.541 212.986ZM482.235 84.7395C491.402 79.4435 501.703 76.7864 511.987 76.7864C522.285 76.7864 532.569 79.4435 541.752 84.7395L862.553 269.95C862.149 270.188 861.727 270.342 861.323 270.574L734.961 343.523C683.87 276.054 602.944 232.388 511.987 232.388C421.028 232.388 340.101 276.054 289.008 343.523L168.96 274.211C166.339 272.705 163.651 271.407 160.927 270.237L482.235 84.7395ZM477.567 927.959C477.567 928.669 477.567 930.836 475.083 932.257C472.681 933.678 470.837 932.68 470.177 932.307L156.851 751.389C138.501 740.804 127.1 721.052 127.1 699.855V338.123C127.1 337.413 127.1 335.252 129.587 333.831C132.039 332.374 133.933 333.458 134.543 333.813L254.471 403.058C240.248 436.559 232.383 473.377 232.383 511.989C232.383 654.513 339.578 772.394 477.567 789.408V927.959ZM477.567 719.914C377.664 703.442 301.203 616.494 301.203 511.989C301.203 485.909 306.005 460.929 314.715 437.843C322.935 416.044 334.637 395.95 349.182 378.262C387.88 331.242 446.484 301.223 511.987 301.223C577.49 301.223 636.091 331.242 674.79 378.262C689.349 395.95 701.055 416.061 709.272 437.86C717.966 460.929 722.772 485.909 722.772 511.989C722.772 616.427 646.408 703.328 546.605 719.882C535.343 721.762 523.791 722.771 511.987 722.771C500.266 722.771 488.781 721.774 477.567 719.914ZM896.888 699.855C896.888 721.033 885.488 740.773 867.17 751.377L547.215 936.06C546.995 936.06 546.538 935.789 546.404 935.251L546.538 789.396C684.463 772.308 791.606 654.463 791.606 511.989C791.606 473.377 783.727 436.575 769.516 403.07L896.074 330.023C896.282 330.023 896.753 330.299 896.888 330.837V699.855Z" fill="#231F20"/>
<path d="M578.172 511.996C578.172 548.544 548.542 578.176 511.994 578.176C475.444 578.176 445.812 548.544 445.812 511.996C445.812 475.448 475.444 445.816 511.994 445.816C548.542 445.816 578.172 475.448 578.172 511.996Z" fill="#231F20"/>
</g>
<defs>
<clipPath id="clip0_4157_33348">
<rect width="907.469" height="1008" fill="white" transform="translate(58.2656 8)"/>
</clipPath>
</defs>
</svg>
